<?xml version="1.0" encoding="UTF-8"?>
<svg version="1.1" viewBox="0 0 2048 1365" width="3000" height="2000" xmlns="http://www.w3.org/2000/svg">
<path transform="translate(1445,424)" d="m0 0 4 1 2 2v14l-1 14 5-3 7-8 7-7 13-8 12-4 6-1h18l9 2 10 5 10 9 6 10 1 5 5-1 7-8 10-10 12-7 12-4 6-1h19l13 4 10 7 8 9 5 11 2 7 1 11 1 122 3-6 2-11 1-20 2-18 1-33 3-5 5 1 3 5 3 18v25l2 4 3-1 5-15 1-4 2-43 2-11 4-2 3 1 4 16 1 14v18l-1 13 5-10 6-15 3-13 6-15 4-6 4 1 2 2v12l-6 21-6 16 4-1 4-5 6-11 3-3h4l2 3-1 7-7 14 7-2 4-6 4-3 7-3 4 1 1 3-6 8-2 2 1 4 10 2-1 7-1 8 3 1-1 6-9 9-1 4 7 2-3 6 8 3v13l2 7-4 6-7 4 1 3 5 3-4 15-8 15-8 9-4 3 1 5 3 2v7l-8 18-3 8-15 15-9 5-6 7-3 2-19 1-10 4-4 6h-8l-1 3-7 4-6 1-9-2-3 6-1 1h-6l-10-9-3-1-3 11-1 8 5 5 6 5 14 7 8 5 33 15 11 7 7 10 3 4-1 6-7 3v7l-5 8-7 3-3 1-14 1-3 2-4-1-3-2h-3l-1 4-10 1-1 5-5-1-4-2-2-5-6 4-2 4-5 1-12-6h-10l-4-2-2-3v-4l-18 1-6-7-5-8-3-1-3 16-4 4-3 1h-25l-1 9-2 4-10 1-4 4-3 6-6 3-6 1 2-4 4-6 3-8-11 3h-7l3 10-33 15-25 11-4-2-2-2 2-25 1-3-4 1-7 9-10 10-11 7-11 4-4 1h-22l-12-4-11-7-7-8-5-10-3-12-1-131-2-2-22-1-1-1v-12h61l1 15 1 127 4 10 6 7 5 3 10 2 11-1 12-5 10-8 8-9 1-2v-123l-2-2-22-2-1-1v-10l1-1 53-1 7-8 7-7 12-5 6-2v-6l-9-21-1-17-11-21-6-7-13-8-6-3-52-1-1-1v-12l26-1 2-2v-22l-4-8-6-21-1-4v-8h7l4 2v-77l-2-2-6 1-14 5-5-10v-2l37-17zm43 23-13 4-11 7-7 7-5 7v95l8-2 3 4 2 4v-2h9l2 5 13 3v11l2 4 10 4 8 1h10l3-3v-121l-3-11-5-8-6-5-11-4zm106 0-13 4-11 7-8 8-4 6v124l3 3h23v13h-74l-1 4 11-2 4 2 1 6-1 9 3 9 3 5 8 5 4 18 6 9v14l-1 4 4 2 7-4 5-4 14-8 10-11 14-4 9-5 13-11 9-8 6-13 4-12v-5l-40-1v-11l23-1 3-3v-118l-2-11-5-10-7-6-7-3-5-1zm-116 299-10 8-5 6-1 6v47h12l6-2 3-8 2-9 4-6 15-12 2-5v-6l-5-8-6-5-10-4zm44 63-6 4-8 7-9 3-17 3-2 6 1 7-2 4-8 6-6 1-3-1v24l4 3 10-4 3-8 5-3 3-1v-5h12l15-3 6-2 2-18 8-17-1-5zm-59 18-1 1v18l7-1 3-3v-8l-2-6z" fill="#6A6A6A"/>
<path transform="translate(1445,424)" d="m0 0 4 1 2 2v14l-1 14 5-3 7-8 7-7 13-8 12-4 6-1h18l9 2 10 5 10 9 6 10 1 5 5-1 7-8 10-10 12-7 12-4 6-1h19l13 4 10 7 8 9 5 11 2 7 1 11v125l-4 7h-3v-12l-6 4-5 8-3 6h-42v-11l1-1 23-1 2-2v-118l-2-11-5-10-6-5-7-3-5-1h-8l-13 4-11 7-7 7-4 6v124l2 2 23 1v13h-88l-1-1v-11l1-1 23 1 4-4v-121l-3-11-7-8-5-4-11-4h-9l-13 4-11 7-10 11-1 2h-2l1 124 2 2 23 1 1 1v11l-1 1h-89l-1-1v-12l26-1 2-2v-22l-4-8-6-21-1-4v-8h7l4 2v-77l-2-2-6 1-14 5-5-10v-2l37-17z" fill="#020206"/>
<path transform="translate(401,628)" d="m0 0h11l14 31 13 30 17 39 20 46 26 60 14 32 8 19 2 2 23 2 1 5v9h-106v-14l31-1 3-4-19-46-8-19v-2h-107l-2 6-13 31-12 29 1 4 32 2v14h-83v-14l23-1 3-3 8-21 19-47 16-39 17-40 16-37 13-30 14-32zm-7 62-5 12-14 37-21 53v5h87l-1-7-31-74-11-26z" fill="#010157"/>
<path transform="translate(928,628)" d="m0 0 4 2 1 2 1 20 1 221 3 2 15-5h4l3 8-1 4-37 17-19 8-4-2-1-1v-14l1-14-4 1-9 11-12 10-12 6-10 3h-24l-15-5-11-7-12-12-8-13-6-14-4-16-2-20v-16l2-15 6-20 8-15 9-12 9-9 15-10 13-5 13-3h17l14 3 10 4 7 5 5 1-1-66-4-3-17 7-3-1-4-8v-3l45-20zm-86 102-10 4-8 7-7 11-4 10-3 16-1 7v25l2 19 5 19 5 11 6 10 7 7 9 5 11 3 13-1 14-7 10-9 7-9v-71l-3-17-5-13-6-10-7-8-11-7-6-2z" fill="#020257"/>
<path transform="translate(410,336)" d="m0 0 20 1 18 3 15 4 15 6 12 6h2v-15h14l1 1v94h-15l-1-21-4-16-8-16-10-11-10-7-13-6-14-4-9-1h-15l-14 2-16 5-14 8-11 9-11 13-9 16-7 18-4 17-2 15v30l3 22 6 21 7 16 9 14 11 12 10 8 16 8 12 4 12 2h27l14-2 16-5 15-8 9-7 11-11 11-16 4 2 6 7-2 5-11 14-11 12-16 12-17 9-18 6-14 3-11 1h-25l-14-2-16-4-15-6-15-8-11-8-10-9-10-10-12-17-10-21-6-19-3-16-1-13v-19l2-16 4-17 6-16 9-17 10-13 11-12 11-9 15-10 15-7 18-6 15-3z" fill="#020205"/>
<path transform="translate(772,424)" d="m0 0 4 2 2 3-2 25h3l7-8 10-10 12-7 11-4 7-1h19l12 4 10 6 8 9 5 10 3 12 1 9 1 122 2 2 22 1 1 1v12h-89v-13l24-1 2-3v-114l-2-14-5-10-6-5-7-3-5-1h-9l-13 4-11 8-7 7-4 6v123l2 2 23 1 1 1v11l-1 1h-89l-1-1v-12l26-1 2-3v-110l-1-28-5-1-16 6-5-10v-2l37-17z" fill="#020207"/>
<path transform="translate(559,719)" d="m0 0h61l1 136 3 13 6 9 7 4 10 2 10-1 10-4 11-7 9-10 2-4v-110l-1-13-1-1-22-1-1-1v-11l1-1h60l1 153 2 3 11-3 6-2h4l3 7v4l-32 15-25 11-6-3v-9l2-20-4 2-7 9-8 8-11 7-9 4-8 2h-21l-12-4-11-7-7-8-6-12-2-8-1-11-1-122-1-2-22-1-1-1z" fill="#010157"/>
<path transform="translate(1178,428)" d="m0 0h61l1 137 3 11 5 8 5 4 7 3h15l13-5 9-7 8-8 3-5v-115l-1-8-2-2-22-1v-12h61l1 25v128l2 2 7-1 12-4h2l4 11-27 13-30 13-3 1-4-4v-9l2-17 1-2-5 2-11 13-10 8-12 6-14 3h-14l-12-3-11-6-10-10-6-12-2-8-1-118-1-16-2-2-22-1z" fill="#020205"/>
<path transform="translate(1295,719)" d="m0 0h61l1 15 1 127 4 10 6 7 5 3 10 2 11-1 12-5 10-8 8-9 1-2v-123l-2-2-22-2 3-11h48l2 13v10l-1 4v12l3 6 5 2 1 61-1 45 4 2v2l10-1 1 3 8 2-1-4v-7l3 1 3 10-33 15-25 11-4-2-2-2 2-25 1-3-4 1-7 9-10 10-11 7-11 4-4 1h-22l-12-4-11-7-7-8-5-10-3-12-1-131-2-2-22-1-1-1z" fill="#010157"/>
<path transform="translate(970,719)" d="m0 0h90l1 1v12l-25 1-1 5 13 38 12 36 14 41h2l11-28 21-56 12-33-2-3-24-1-1-1v-12h79v13l-25 1-3 3-8 18-15 33-13 29-14 32-12 31-17 40-10 23-12 23-8 10-7 7-14 7-11 2h-22l-4-5 6-27 34-2 11-4 6-5 8-13 11-24 4-11-11-29-19-49-32-82-3-6-1-1-20-1-1-1z" fill="#020257"/>
<path transform="translate(607,424)" d="m0 0h21l15 3 11 5 11 7 9 10 6 11 4 10 2 9 1 19h-123l3 29 5 17 7 13 9 10 9 7 13 5 4 1h22l13-4 10-6 8-9 9-17 4-10h4l5 4-1 11-6 18-9 17-9 11-7 7-13 8-11 4-10 2h-18l-17-4-16-8-9-7-7-7-7-10-8-16-4-14-2-12v-30l4-19 6-16 7-13 9-12 7-7 10-7 12-6 10-3zm-4 16-11 4-11 8-8 11-5 12-2 9 64-1 13-1 4-5-2-13-4-10-7-8-10-5-3-1z" fill="#030305"/>
<path transform="translate(978,386)" d="m0 0 5 1v41h38v15h-38l1 135 4 8 4 2h12l8-4 7-6 5-6 3 4 2 4-1 5-9 11-9 9-11 7-7 3-5 1h-13l-11-4-8-7-5-10-2-8-1-13v-131h-24l-3-3 2-4 14-13 8-7 10-9 8-7 10-9z" fill="#020206"/>
<path transform="translate(1234,678)" d="m0 0h5v41h38v16h-38l1 133 3 8 4 3 10 1 9-3 8-7 6-7 3 4 2 5-1 5-13 15-11 9-11 5-3 1h-18l-10-4-8-8-4-9-2-8-1-143h-23l-4-3 1-4 10-9 11-9 7-7 8-7 10-9 8-7z" fill="#010157"/>
<path transform="translate(1103,424)" d="m0 0 4 1 2 2-1 16-2 19h3l1-5 8-14 8-9 10-6 11-3 20-1 3 3-1 10-4 19-1 1-29 1-10 3-9 7-7 12-1 11v104l2 3 27 1 1 3v9l-1 1h-93l-1-1v-12l26-1 2-2v-138l-2-2-6 1-14 5-5-10v-2l29-13z" fill="#020207"/>
<path transform="translate(401,628)" d="m0 0h3l-2 6-19 43-18 42-16 37-20 48-27 67-6 15-4 4-4-1 5-4 8-21 19-47 16-39 17-40 16-37 13-30 14-32z" fill="#8E8E8E"/>
<path transform="translate(394,337)" d="m0 0h10v1l-26 4-21 7-17 8-12 8-11 9-13 13-11 16-8 16-7 21-3 18-1 10v11l2 22 4 19 5 15-1 3-6-16-4-14-2-12-1-13v-19l2-16 4-17 6-16 9-17 10-13 11-12 11-9 15-10 15-7 18-6 15-3z" fill="#838383"/>
<path transform="translate(1416,458)" d="m0 0h2v78l-1 1v36l1 2v22l-5 4-23-1-1 9-2 2v-12l26-1 2-2v-22l-4-8-6-21-1-4v-8h7l4 2z" fill="#6A6A6A"/>
<path transform="translate(994,736)" d="m0 0h2l11 27 18 47 32 82 3 7-1 7-14 31-7 11-7 7-9 4-10 1h-11l2-2 14-1 11-4 6-5 8-13 11-24 4-11-11-29-19-49-32-82z" fill="#727272"/>
<path transform="translate(845,715)" d="m0 0h17v1l-15 1-18 5-14 7-10 8-10 10-9 14-6 13-4 13-3 21 1 22 3 19 6 18-1 3-6-14-4-16-2-20v-16l2-15 6-20 8-15 9-12 9-9 15-10 13-5z" fill="#9A9A9A"/>
<path transform="translate(947,443)" d="m0 0 3 2 1 141 2 14-2-2-3-11-1-13z" fill="#7A7A7A"/>
<path transform="translate(583,734)" d="m0 0 4 2 1 131 3 13-1 3-4-10-2-16z" fill="#7A7A7A"/>
<path transform="translate(607,424)" d="m0 0 4 1-21 6-11 6-8 6-11 11-10 16-6 15-5 19-1 7v26l4 21 3 9-1 4-5-13-4-20v-30l4-19 6-16 7-13 9-12 7-7 10-7 12-6 10-3z" fill="#858585"/>
<path transform="translate(1644,611)" d="m0 0h1v7l-8 21-4 6-11 10-10 8-8 5-16 5-9 10-15 9h-2v2l-8 5h-4l1-3 7-4 5-4 14-8 10-11 14-4 9-5 13-11 8-7 6-13 5-17z" fill="#ACABAC"/>
<path transform="translate(689,734)" d="m0 0 3 2v123l-6 8-8 8-9 6-11 4h-8l1-2 12-3 11-6 10-9 5-8z" fill="#6C6C6C"/>
<path transform="translate(1465,630)" d="m0 0 4 2 10 19 1 5v11l7 17 3 9-3 5-18 9-15 15-1-2h-49l-1 9-3 1v-10l1-1 53-1 7-8 7-7 12-5 6-2v-6l-9-21-1-17-11-21z" fill="#ACABAC"/>
<path transform="translate(741,458)" d="m0 0 3 1v137l-5 5-23-1-1 9-2 1v-11l26-1 2-3z" fill="#6F6F6F"/>
<path transform="translate(1308,444)" d="m0 0 3 1v122l-6 9-10 9-9 5-8 3h-13v-1l13-2 10-4 9-7 8-8 3-5z" fill="#6C6C6C"/>
<path transform="translate(1426,735)" d="m0 0h2v124l-4 6-7 8-14 9-9 3h-8l1-2 10-2 12-6 12-11 4-6z" fill="#848484"/>
<path transform="translate(1180,734)" d="m0 0h24l2 2 1 138 3 17h-2l-4-13-1-143h-23z" fill="#6E6E6E"/>
<path transform="translate(1120,734)" d="m0 0 3 1-1 7-26 69-15 40-2 4-4-1 4-8 14-37 19-51 8-22z" fill="#8F8F8F"/>
<path transform="translate(1072,458)" d="m0 0 2 1v137l-5 5-23-1-1 9-2 1v-11l26-1 2-2z" fill="#6A6A6A"/>
<path transform="translate(1624,462)" d="m0 0 3 3 3 9v122l-5 5h-20l-1 7-3 3v-11l1-1 23-1 2-2v-118l-2-11z" fill="#6B6B6B"/>
<path transform="translate(844,462)" d="m0 0 3 3 2 5 1 9v117l-5 5-21-1-1 9-2 1v-11l24-1 2-3v-114l-2-14z" fill="#6A6A6A"/>
<path transform="translate(889,755)" d="m0 0 3 3 5 12 3 14v75l-8 11-10 8-11 6-4 1h-8l2-2 9-2 11-6 10-9 6-8v-71l-3-17-5-13z" fill="#6A6A6A"/>
<path transform="translate(1677,502)" d="m0 0 4 1-3 5-1 32-2 19-1 20-2 12-4 6-3 1 1-4 2-5 2-11 1-20 2-18 1-33z" fill="#A1A1A1"/>
<path transform="translate(1203,444)" d="m0 0 3 1 1 131 2 9v5l-2-3-3-10z" fill="#6D6D6D"/>
<path transform="translate(1321,735)" d="m0 0h2l1 130 3 14-1 4-4-11-1-6z" fill="#6A6A6A"/>
<path transform="translate(1529,810)" d="m0 0 4 1-1 8-7 15-1 3-1 14-6 3-12 3-14 1-3 5-6 2-5 10h-2l2-9 4-5 6-1v-5l4-1h8l15-3 6-1v-13l3-9 6-13z" fill="#A9A9A9"/>
<path transform="translate(1517,460)" d="m0 0 4 4 3 11v121l-5 5-6-1v-1l7-2 1-1v-121l-3-11z" fill="#6C6C6C"/>
<path transform="translate(398,691)" d="m0 0 3 1 17 41 20 48 5 11v6l-4 1-63-1v-1h65l-6-17-14-33-13-31-10-24z" fill="#707070"/>
<path transform="translate(1706,479)" d="m0 0 1 3-2 10-2 44-5 17-3 5-4 1-1-3 3-2 5-15 1-4 2-43 2-11z" fill="#9F9F9F"/>
<path transform="translate(282,421)" d="m0 0 1 3-5 16-3 18-1 10v11l2 22 4 19 5 15-1 3-6-16-4-14-2-12-1-13v-19l2-16 2-10h2l2-9z" fill="#808080"/>
<path transform="translate(327,804)" d="m0 0 1 3-12 29-20 50-4 4-4-1 5-4 8-21 19-47 5-10z" fill="#888"/>
<path transform="translate(401,628)" d="m0 0h3l-2 6-19 43-16 37-1-3 2-8 11-25 17-39z" fill="#898989"/>
<path transform="translate(1502,758)" d="m0 0 4 2 3 6v6l-5 8-12 9-3 3-5 19-3 3-13 2-5-1-1-2 17-2 3-8 2-9 4-6 7-6 8-6 2-5v-6z" fill="#AFAFAF"/>
<path transform="translate(509,545)" d="m0 0 2 1-4 8-10 13-7 7-14 10-15 7-16 4-8 1-4-2 14-2 16-5 15-8 9-7 11-11z" fill="#747474"/>
<path transform="translate(1738,482)" d="m0 0h2l-1 5-4 8-5 16-4 14-7 16-3 3-3-1 6-12 6-15 3-13 6-15z" fill="#ADADAD"/>
<path transform="translate(1057,901)" d="m0 0h2l-1 7-13 29-7 11-7 7-9 4-10 1h-11l2-2 14-1 11-4 6-5 8-13 11-24z" fill="#868686"/>
<path transform="translate(546,474)" d="m0 0 1 3-6 18-3 16v26l4 21 3 9-1 4-5-13-4-20v-30l4-19 1-3h2l3-10z" fill="#737373"/>
<path transform="translate(1283,428)" d="m0 0h58l-1 3-53 1-2 6-2 2z" fill="#000057"/>
<path transform="translate(1234,678)" d="m0 0h2l-2 4-11 10-8 7-11 10-11 9-7 7-9 7-1-3 11-10 11-9 7-7 8-7 10-9 8-7z" fill="#8C8C8C"/>
<path transform="translate(978,386)" d="m0 0 4 1h-3l-2 4-14 13-11 9-7 7-8 7-10 9-6 5v-4l15-14 8-7 10-9 8-7 10-9z" fill="#7C7C7C"/>
<path transform="translate(1178,428)" d="m0 0h58l-1 3h-55v7l-2 2z" fill="#10105B"/>
<path transform="translate(681,533)" d="m0 0 2 1-6 16-6 11-9 10-8 6-10 4-15 2-12-1v-1l19-1 13-4 10-6 8-9 9-17 4-10z" fill="#797979"/>
<path transform="translate(1465,630)" d="m0 0 4 2 10 19 1 5v11l7 17 3 9-3 5h-3l2-4-1-6-8-19-1-17-11-21z" fill="#A2A2A2"/>
<path transform="translate(642,456)" d="m0 0 3 3 4 13v7l-2 3h-2v2l-2 1h-58l-4-2 49-1 13-1 3-4-2-13z" fill="#2B2B62"/>
<path transform="translate(394,337)" d="m0 0h10v1l-26 4-21 7-17 8-12 8-6 5-2-1 1-3 15-10 16-8 16-6 12-3z" fill="#757575"/>
<path transform="translate(779,771)" d="m0 0 1 3-4 13-3 21 1 22 3 19 6 18-1 3-6-14-4-16-1-6v-28l3-20z" fill="#6F6F6F"/>
<path transform="translate(925,629)" d="m0 0 3 1-8 5-41 18-6 3v7l-3-4-1-5 45-20z" fill="#737373"/>
<path transform="translate(1147,425)" d="m0 0h8v1l-14 3-11 6-8 8-8 14-3 6-3 1-3-1v-6h1v5h3l1-5 8-14 8-9 10-6z" fill="#808080"/>
<path transform="translate(897,661)" d="m0 0 3 1v66l-4 2-1-2h3z" fill="#6C6C6C"/>
<path transform="translate(1103,424)" d="m0 0v3l-31 14-23 10-4 3-1-4 29-13z" fill="#757575"/>
<path transform="translate(1500,424)" d="m0 0 4 1-21 7-11 7-6 5-7 8-5 5-4-2 5-3 7-8 7-7 13-8 12-4z" fill="#757575"/>
<path transform="translate(452,819)" d="m0 0h2l19 46 8 19-2 5-1 1h-5l5-6-19-46-7-16z" fill="#707070"/>
<path transform="translate(769,425)" d="m0 0h3v2l-35 16-18 8h-2l-1 3-2-4 37-17z" fill="#747474"/>
<path transform="translate(1445,424)" d="m0 0v3l-14 7-29 13-10 5-3 2-1-4 37-17z" fill="#747474"/>
<path transform="translate(826,424)" d="m0 0 4 1-17 5-13 7-12 11-6 8-4 1-3-2 4-1 7-8 10-10 12-7 11-4z" fill="#737373"/>
<path transform="translate(845,715)" d="m0 0h17v1l-15 1-18 5-14 7-10 8-10 10v-3l15-15 13-8 12-4z" fill="#727272"/>
<path transform="translate(1606,424)" d="m0 0 4 1-16 5-14 7-12 11-8 9-5-1 4-2 7-8 10-10 12-7 12-4z" fill="#6F6F6F"/>
<path transform="translate(277,507)" d="m0 0 2 4 6 20 9 19 10 15 1 5-5-5-10-15-5-10-5-17-3-11z" fill="#12125B"/>
<path transform="translate(410,336)" d="m0 0 20 1 14 2v1h-41l-23 3-8 1 3-2 21-4z" fill="#0F0F5B"/>
<path transform="translate(1120,734)" d="m0 0 3 1-1 7-16 42-1-3 2-9 13-36z" fill="#878787"/>
<path transform="translate(1451,472)" d="m0 0h1v95l6-3 2 1-5 5h-4z" fill="#747474"/>
<path transform="translate(399,594)" d="m0 0 39 1 13-1-4 2-16 2h-21l-9-2z" fill="#16165B"/>
<path transform="translate(272,479)" d="m0 0h2l2 22 4 19 5 15-1 3-6-16-4-14-2-12z" fill="#727272"/>
<path transform="translate(970,719)" d="m0 0h90v1l-86 1-3 10h-1z" fill="#6A6A6A"/>
<path transform="translate(1584,675)" d="m0 0v3l-8 7-12 7h-2v2l-8 5h-4l1-3 7-4 5-4 14-8 6-4z" fill="#A3A3A3"/>
<path transform="translate(898,857)" d="m0 0 1 4-8 10-9 7-11 6-4 1h-8l2-2 9-2 11-6 10-9z" fill="#767676"/>
<path transform="translate(1404,533)" d="m0 0h6l-2 3 1 12 6 19v5l-3-3-6-19-2-9z" fill="#A3A3A3"/>
<path transform="translate(689,857)" d="m0 0 1 3-2 5-10 10-9 6-11 4h-8l1-2 12-3 11-6 10-9z" fill="#757575"/>
<path transform="translate(1425,861)" d="m0 0v3l-8 9-14 9-9 3h-8l1-2 10-2 12-6 12-11z" fill="#828282"/>
<path transform="translate(1416,575)" d="m0 0h2v22l-5 4-23-1-1 9-2 2v-12l26-1 2-2z" fill="#6C6C6C"/>
<path transform="translate(1093,719)" d="m0 0h79v1h-76l-1 9-2 2z" fill="#6A6A6A"/>
<path transform="translate(367,707)" d="m0 0 1 2-3 10-11 25h-2l-1 4-2-1 17-39z" fill="#8E8E8E"/>
<path transform="translate(1706,479)" d="m0 0 1 3-2 10-1 16-2 2-1 10h-1v-12l1-16 2-11z" fill="#B3B3B3"/>
<path transform="translate(566,484)" d="m0 0h47v2l-42 1-5-2z" fill="#000057"/>
<path transform="translate(985,428)" d="m0 0h33l-3 3h-29l-2-2z" fill="#000057"/>
<path transform="translate(509,545)" d="m0 0 2 1-4 8-10 13-7 7-4-1 12-12z" fill="#848484"/>
<path transform="translate(1644,611)" d="m0 0h1v7l-8 21-4 2 1-5 7-19 1-5z" fill="#BAB9BA"/>
<path transform="translate(1749,514)" d="m0 0h2l-1 5-6 10-6 8h-6l5-5 5-8 6-9z" fill="#A5A5A5"/>
<path transform="translate(1057,901)" d="m0 0h2l-1 7-11 24h-2l-1 4-2-1 11-24z" fill="#8C8C8C"/>
<path transform="translate(327,804)" d="m0 0 1 3-12 29-2 5-1-3 1-6 10-24z" fill="#8D8D8D"/>
<path transform="translate(546,474)" d="m0 0 1 3-6 18-4 21-2 1v-9l4-19 1-3h2l3-10z" fill="#797979"/>
<path transform="translate(665,719)" d="m0 0h60v1l-57 1-1 7-3 3v-11z" fill="#7E7E7E"/>
<path transform="translate(381,677)" d="m0 0 1 3-15 34-1-3 2-8 10-22z" fill="#818181"/>
<path transform="translate(1295,719)" d="m0 0h61v1l-57 1-3 10h-1z" fill="#7F7F7F"/>
<path transform="translate(559,719)" d="m0 0h61v1l-57 1-3 9h-1z" fill="#7F7F7F"/>
<path transform="translate(485,392)" d="m0 0 3 3 4 10 2 9v20l-2 2-1-21-4-16z" fill="#767676"/>
<path transform="translate(1769,524)" d="m0 0 2 1-4 4-6 3-6 8-6 1-2-3 7-2 4-6 4-3z" fill="#A5A5A5"/>
<path transform="translate(1401,719)" d="m0 0h49v1h-46l-1 9-3 1v-10z" fill="#808080"/>
<path transform="translate(540,550)" d="m0 0 2 3 5 15 7 14 2 3-1 3-6-8-4-7-3-12-2-7z" fill="#14145D"/>
<path transform="translate(1304,572)" d="m0 0v3l-9 10-9 5-8 3h-13v-1l13-2 10-4 9-7z" fill="#828282"/>
<path transform="translate(691,875)" d="m0 0 3 2-1 18-1 7-3 2v-9z" fill="#7F7F7F"/>
<path transform="translate(642,456)" d="m0 0 3 3 4 13v7l-4 4h-15v-1l13-1 3-4-2-13z" fill="#777"/>
<path transform="translate(607,424)" d="m0 0 4 1-21 6-11 6-5 2 2-4 14-7 10-3z" fill="#737373"/>
<path transform="translate(1197,711)" d="m0 0 3 1-14 13-9 7-1-3 11-10z" fill="#7D7D7D"/>
<path transform="translate(983,959)" d="m0 0h3l-4 20-3 9-2-2z" fill="#868686"/>
<path transform="translate(1428,875)" d="m0 0 2 1v9l-2 17-2 2-1-1 2-25z" fill="#828282"/>
<path transform="translate(1311,584)" d="m0 0 2 1-2 25-3 2v-9l2-17z" fill="#797979"/>
<path transform="translate(900,876)" d="m0 0h2l-1 25-3 3v-14l1-11z" fill="#7E7E7E"/>
<path transform="translate(1279,864)" d="m0 0 1 4-8 9-10 5h-7l2-2 9-3 8-7z" fill="#878787"/>
<path transform="translate(1470,828)" d="m0 0 4 1 1 2v11l-5 5-6 1-1-2 7-3 1-1v-8z" fill="#9F9F9F"/>
<path transform="translate(1111,599)" d="m0 0h26l-3 1v2h-22z" fill="#2A2A61"/>
<path transform="translate(476,378)" d="m0 0 4 2 6 8 5 10 3 10v6h-1l-4-15-3-6-3-3-6-9z" fill="#12125C"/>
<path transform="translate(1023,573)" d="m0 0 1 2-3 5-9 8-4 2-9 1-4-2 12-2 9-6z" fill="#7D7D7D"/>
<path transform="translate(1698,539)" d="m0 0h2l1 5-5 13-5 2-1-3 3-2z" fill="#A7A7A7"/>
<path transform="translate(796,436)" d="m0 0 2 1-9 10-7 9-4 1-3-2 4-1 7-8z" fill="#838383"/>
<path transform="translate(611,424)" d="m0 0h17l7 1-4 2h-20l-11 2-4-1z" fill="#080859"/>
<path transform="translate(1529,810)" d="m0 0 4 1-1 8-6 12h-2l2-9 3-7z" fill="#A3A3A3"/>
<path transform="translate(1576,436)" d="m0 0 2 1-18 20-5-1 4-2 7-8z" fill="#7D7D7D"/>
<path transform="translate(819,723)" d="m0 0 2 1-4 4-11 8-11 11v-3l15-15z" fill="#777"/>
<path transform="translate(1469,437)" d="m0 0 2 1-5 6-7 8-5 5-4-2 5-3 7-8z" fill="#878787"/>
<path transform="translate(1147,425)" d="m0 0h8v1l-14 3-11 6-7 7v-3l7-8 8-4z" fill="#757575"/>
<path transform="translate(290,402)" d="m0 0 1 2-7 17h-2l-3 11-2 6-1-4 7-19z" fill="#979797"/>
<path transform="translate(741,595)" d="m0 0 2 1-2 4-5 1-20-1-1 9-2 1v-11l26-1z" fill="#8B8B8B"/>
<path transform="translate(886,598)" d="m0 0 23 1-3 3h-18v-2h-2z" fill="#28285F"/>
<path transform="translate(1561,599)" d="m0 0h23l-4 3h-18z" fill="#29295F"/>
<path transform="translate(781,599)" d="m0 0h22l-3 3h-18z" fill="#26265D"/>
<path transform="translate(847,595)" d="m0 0 2 1-2 4-4 1-19-1-1 9-2 1v-11l24-1z" fill="#8A8A8A"/>
<path transform="translate(653,574)" d="m0 0 2 1-3 3-12 4-11 1-12-1v-1l19-1 13-4z" fill="#767676"/>
<path transform="translate(470,863)" d="m0 0h2l9 21-2 5-1 1h-5l5-6-8-19z" fill="#787878"/>
<path transform="translate(352,744)" d="m0 0 1 3-10 23-1-3 1-6 6-13h2z" fill="#828282"/>
<path transform="translate(1064,441)" d="m0 0h3v2l-18 8-4 3-1-4z" fill="#757575"/>
<path transform="translate(1503,867)" d="m0 0 4 1-1 6-3 6-8 6 2-4 4-6 2-5z" fill="#A2A2A2"/>
<path transform="translate(1085,835)" d="m0 0 1 3-6 15-1 2-4-1 8-16z" fill="#858585"/>
<path transform="translate(1483,808)" d="m0 0 1 3-3 3-13 2-5-1-1-2 20-2z" fill="#A0A0A0"/>
<path transform="translate(1048,874)" d="m0 0h2l10 25-1 4-4-9-7-18z" fill="#717171"/>
<path transform="translate(1502,758)" d="m0 0 4 2 3 6v6l-2 4-3 1 1-12z" fill="#A5A5A5"/>
<path transform="translate(1724,525)" d="m0 0 1 2-6 14-3 3-3-1 5-10 3-3z" fill="#A1A1A1"/>
<path transform="translate(734,441)" d="m0 0 2 1-8 5-9 4h-2l-1 3-2-4z" fill="#777"/>
<path transform="translate(978,386)" d="m0 0 4 1h-3l-2 4-14 13-2-1 11-12z" fill="#797979"/>
<path transform="translate(1635,639)" d="m0 0 1 2-7 8-7 6-2-1 3-4 10-10z" fill="#ADACAD"/>
<path transform="translate(936,423)" d="m0 0 2 1-11 12-6 5v-4z" fill="#858585"/>
<path transform="translate(1407,876)" d="m0 0 2 1-4 4-11 4h-8l1-2 10-2z" fill="#747474"/>
<path transform="translate(689,857)" d="m0 0 1 3-2 5-10 10-4-1 10-9z" fill="#8E8E8E"/>
<path transform="translate(681,533)" d="m0 0 2 1-4 11h-2l-2 6-4 7-1-2 8-17z" fill="#929292"/>
<path transform="translate(771,815)" d="m0 0h2l1 23-3-4z" fill="#6F6F6F"/>
<path transform="translate(1387,599)" d="m0 0h25v1h-22l-1 9-2 2z" fill="#919191"/>
<path transform="translate(898,857)" d="m0 0 1 4-8 10-3 2-3-1 8-8z" fill="#898989"/>
<path transform="translate(970,719)" d="m0 0h23v1l-19 1-3 10h-1z" fill="#909090"/>
<path transform="translate(1043,599)" d="m0 0h25v1h-22l-1 9-2 1z" fill="#909090"/>
<path transform="translate(1483,870)" d="m0 0 3 1 3 10-6 2z" fill="#0A0A59"/>
<path transform="translate(1093,719)" d="m0 0h23v1h-20l-1 9-2 2z" fill="#919191"/>
<path transform="translate(498,561)" d="m0 0 1 4-9 9-4-1z" fill="#898989"/>
<path transform="translate(282,421)" d="m0 0 1 3-5 16-2 7-2 1 1-10h2l2-9z" fill="#767676"/>
<path transform="translate(1749,514)" d="m0 0h2l-1 5-4 6-5 3 2-6z" fill="#ACACAC"/>
<path transform="translate(1120,734)" d="m0 0 3 1-1 7-4 10-1-3 1-7z" fill="#808080"/>
<path transform="translate(1159,424)" d="m0 0h5l-3 3-22 3 2-2z" fill="#0F0F5A"/>
<path transform="translate(1026,954)" d="m0 0 2 1-3 3-13 2h-11l2-2 14-1z" fill="#757575"/>
<path transform="translate(1090,819)" d="m0 0 1 2-2 9-2 5h-2l-1 3-1-2 6-16z" fill="#949494"/>
<path transform="translate(889,755)" d="m0 0 3 3 5 12 1 7-2 2-4-15z" fill="#737373"/>
<path transform="translate(880,649)" d="m0 0 2 1-3 3-6 3v7l-3-4-1-5z" fill="#7A7A7A"/>
<path transform="translate(745,870)" d="m0 0 2 1-1 2-15 5-2-2 10-4z" fill="#717171"/>
<path transform="translate(551,462)" d="m0 0 1 2-4 10h-2l-3 10-2 2 2-9z" fill="#939393"/>
<path transform="translate(1618,454)" d="m0 0 5 2 4 5 3 8v5l-2-4-3-7-3-3z" fill="#14145C"/>
<path transform="translate(1234,678)" d="m0 0h2l-2 4-11 10-2-1 11-12z" fill="#7D7D7D"/>
<path transform="translate(387,661)" d="m0 0 1 2-4 12-1 2h-2l-1 3-1-2 7-16z" fill="#959595"/>
<path transform="translate(492,341)" d="m0 0 4 1-1 2-1 13-4 1v-2h2z" fill="#818181"/>
<path transform="translate(953,870)" d="m0 0 2 1-4 3-12 4-2-2 10-4z" fill="#717171"/>
<path transform="translate(267,889)" d="m0 0h4l-1 11-3 3z" fill="#818181"/>
<path transform="translate(373,693)" d="m0 0 1 2-3 10-4 9-1-3 2-8z" fill="#888"/>
<path transform="translate(1363,579)" d="m0 0 3 1-8 4-9 2-2-2z" fill="#727272"/>
<path transform="translate(1756,532)" d="m0 0h3v3l-4 5-6 1-2-3 7-2z" fill="#A2A2A2"/>
<path transform="translate(1204,873)" d="m0 0 3 1 3 17h-2l-4-13z" fill="#757575"/>
<path transform="translate(1484,794)" d="m0 0h1l1 9-2 5-2 3-2-1z" fill="#B9B9B9"/>
<path transform="translate(1644,611)" d="m0 0h1v7l-2 6h-2l-1-4 2-8z" fill="#A2A2A2"/>
<path transform="translate(362,344)" d="m0 0 2 1-4 3-12 5-2-1 3-3z" fill="#767676"/>
<path transform="translate(330,792)" d="m0 0h2l-1 7-2 5h-2l-1 3-1-2z" fill="#929292"/>
<path transform="translate(1602,599)" d="m0 0h8v1l-5 1-1 7-3 3v-11z" fill="#858585"/>
<path transform="translate(1208,581)" d="m0 0 2 3 4 9 1 6-4-4-2-3z" fill="#14145C"/>
<path transform="translate(1401,444)" d="m0 0 2 1-3 3-8 4-3 2-1-4z" fill="#767676"/>
<path transform="translate(1473,437)" d="m0 0 2 1-17 17v-3l8-9z" fill="#000031"/>
<path transform="translate(485,574)" d="m0 0 3 1-10 8-4 1 2-4z" fill="#7C7C7C"/>
<path transform="translate(401,628)" d="m0 0h3l-2 6-2 4h-2l-1 3-1-2z" fill="#8D8D8D"/>
<path transform="translate(844,462)" d="m0 0 3 3 2 5v9l-2 2-2-14z" fill="#797979"/>
<path transform="translate(964,398)" d="m0 0 2 1-11 12-3-1 5-5z" fill="#8D8D8D"/>
<path transform="translate(296,393)" d="m0 0 1 4-6 10-3 3 3-10z" fill="#828282"/>
<path transform="translate(1503,776)" d="m0 0h3l-2 4-8 6-2-1 5-6z" fill="#ABABAB"/>
<path transform="translate(1187,719)" d="m0 0 2 1-10 11-3 1 1-4z" fill="#8E8E8E"/>
<path transform="translate(1738,482)" d="m0 0h2l-1 5-3 5-4 2 2-6z" fill="#B5B5B5"/>
<path transform="translate(1126,434)" d="m0 0 2 1-5 5-3 6-3 3-2-1 4-6z" fill="#979797"/>
<path transform="translate(1322,865)" d="m0 0h2l3 14-1 4-4-11z" fill="#727272"/>
<path transform="translate(473,582)" d="m0 0 2 1-3 3-9 4-3-1 3-2z" fill="#767676"/>
<path transform="translate(558,452)" d="m0 0 1 4-7 10-1-2 3-7z" fill="#808080"/>
<path transform="translate(638,450)" d="m0 0 4 1 6 12-1 4-4-10-5-5z" fill="#0E0E5A"/>
<path transform="translate(1588,429)" d="m0 0 2 1-3 3-9 6-2-1 5-5z" fill="#757575"/>
<path transform="translate(951,587)" d="m0 0 2 4 4 11-1 4-3-4-2-10z" fill="#101059"/>
<path transform="translate(327,804)" d="m0 0 1 3-6 14-1-3 2-8z" fill="#7C7C7C"/>
<path transform="translate(275,447)" d="m0 0 1 3-1 8-3 2v-7l1-5z" fill="#7D7D7D"/>
<path transform="translate(1283,428)" d="m0 0h3v9l-3 3z" fill="#7B7B7B"/>
<path transform="translate(335,782)" d="m0 0h2l-1 5-3 7-2-4z" fill="#868686"/>
<path transform="translate(653,574)" d="m0 0 2 1-3 3-8 3h-3v-2z" fill="#747474"/>
<path transform="translate(796,436)" d="m0 0 2 1-9 10-2 1 1-4z" fill="#818181"/>
<path transform="translate(1477,432)" d="m0 0h2l-1 3-8 6-4 2 6-8z" fill="#717171"/>
<path transform="translate(444,889)" d="m0 0h3l-1 12-2 2z" fill="#7F7F7F"/>
<path transform="translate(1266,877)" d="m0 0 4 1-8 4h-7l2-2z" fill="#747474"/>
<path transform="translate(1428,875)" d="m0 0 2 1v9l-3 2v-9z" fill="#787878"/>
<path transform="translate(793,747)" d="m0 0v3l-6 9-2-3 5-7z" fill="#818181"/>
<path transform="translate(354,735)" d="m0 0h2l-1 7-1 2h-2l-1 4-2-1z" fill="#929292"/>
<path transform="translate(839,455)" d="m0 0 4 1 5 8-1 3-2-4-4-4z" fill="#17175C"/>
<path transform="translate(1517,613)" d="m0 0 3 1-3 3-7 1v-3z" fill="#9F9F9F"/>
<path transform="translate(1095,808)" d="m0 0 1 3-5 13-1-3 1-6 3-5z" fill="#797979"/>
<path transform="translate(398,638)" d="m0 0 1 3-5 11-1-4 2-6z" fill="#7D7D7D"/>
<path transform="translate(1627,596)" d="m0 0h2l-2 4-4 1-13-1v-1l15-1z" fill="#737373"/>
<path transform="translate(1103,424)" d="m0 0v3l-9 4-3-1 3-2z" fill="#777"/>
<path transform="translate(303,384)" d="m0 0 1 3-6 8-1-4z" fill="#858585"/>
<path transform="translate(828,719)" d="m0 0 3 1-4 3-6 3-2-1 4-4z" fill="#767676"/>
<path transform="translate(925,629)" d="m0 0 3 1-8 5-4-1 3-2z" fill="#767676"/>
<path transform="translate(1009,586)" d="m0 0 2 1-3 3-9 1-4-2 12-2z" fill="#727272"/>
<path transform="translate(769,425)" d="m0 0h3v2l-9 4-3-1 3-2z" fill="#767676"/>
</svg>
